<svg xmlns="http://www.w3.org/2000/svg" viewBox="0 0 600 600" width="600" height="600">
  <g transform="translate(0,600) scale(0.1,-0.1)" fill="#000000" stroke="none">
    <path d="M2172 4722 c-101 -142 -146 -380 -124 -640 27 -300 103 -525 259
-762 100 -152 150 -238 188 -326 l34 -77 -33 -38 c-18 -21 -41 -57 -52 -79
-18 -39 -21 -41 -54 -35 -53 10 -151 52 -177 77 -13 12 -23 29 -23 39 0 26 54
63 130 90 36 12 67 24 68 25 2 1 -15 34 -37 72 -30 51 -46 69 -58 67 -260 -54
-383 -95 -490 -162 -57 -35 -83 -74 -83 -124 0 -43 66 -106 154 -148 62 -30
245 -91 272 -91 7 0 15 -4 18 -9 3 -5 -19 -219 -49 -477 -30 -257 -55 -484
-55 -504 0 -20 12 -60 26 -89 67 -134 282 -221 651 -261 147 -16 523 -8 653
14 363 62 551 177 550 337 0 24 -25 253 -55 508 -29 256 -52 469 -49 473 3 4
12 8 21 8 38 0 269 86 322 120 97 63 121 113 86 181 -36 69 -214 149 -440 199
-49 11 -100 22 -111 25 -18 4 -29 -7 -64 -66 -23 -39 -40 -72 -38 -73 1 -1 32
-13 68 -25 76 -27 130 -65 130 -91 0 -37 -96 -93 -196 -114 -30 -7 -33 -4 -64
46 -18 29 -43 64 -56 78 l-23 25 33 76 c40 91 98 192 184 319 122 181 200 370
244 592 30 150 33 444 5 555 -24 102 -55 179 -93 240 -31 49 -36 52 -59 43
-170 -65 -343 -257 -470 -523 -113 -235 -180 -499 -220 -867 -8 -74 -15 -161
-15 -192 l0 -58 -80 0 -80 0 0 63 c0 71 -23 288 -45 425 -90 561 -351 1023
-647 1146 -36 16 -37 15 -56 -12z m123 -188 c142 -116 293 -379 370 -644 73
-253 125 -612 125 -874 0 -80 2 -87 18 -81 88 38 223 44 330 16 l72 -19 0 66
c0 101 19 331 40 484 50 358 146 641 292 859 64 96 192 233 211 226 7 -2 23
-39 36 -83 23 -72 25 -97 25 -279 1 -159 -3 -217 -18 -285 -46 -213 -110 -362
-241 -561 -98 -148 -181 -308 -215 -413 l-23 -69 37 -34 c49 -46 89 -100 82
-111 -12 -20 -226 -36 -456 -35 -241 2 -410 18 -417 40 -3 7 23 41 57 75 70
72 70 70 20 196 -41 102 -94 197 -207 372 -141 219 -213 410 -244 645 -14 110
-6 346 15 430 18 72 33 115 42 115 3 0 25 -16 49 -36z m403 -2003 c280 -20
568 -12 855 25 75 10 132 13 137 8 5 -5 12 -50 15 -101 l7 -92 -38 -10 c-178
-48 -397 -71 -665 -71 -277 0 -523 25 -683 71 l-38 11 7 86 c10 131 -4 120
132 101 65 -9 187 -22 271 -28z"/>
    <path d="M2334 4165 c-5 -27 -8 -102 -7 -165 2 -204 57 -360 214 -615 40 -66
90 -151 111 -190 44 -82 45 -77 28 96 -40 396 -146 712 -294 875 l-44 49 -8
-50z"/>
    <path d="M3624 4178 c-81 -86 -177 -275 -223 -440 -43 -155 -92 -470 -91 -592
l0 -31 19 41 c11 23 61 111 112 195 158 263 206 379 230 555 12 88 7 241 -9
283 -7 21 -8 21 -38 -11z"/>
  </g>
</svg>
